<?xml version="1.0" encoding="UTF-8"?>
<svg version="1.1" xmlns="http://www.w3.org/2000/svg" width="50" height="50" viewBox="0 0 500 500">
<path d="M0 0 C26.47653987 20.20782969 34.29953986 54.92691486 39.65625 86.02734375 C41.69799562 82.96472532 43.06758193 79.93696541 44.59375 76.58984375 C48.35362713 68.76942163 53.49136604 63.04844033 59.65625 57.02734375 C60.64238281 56.01027344 60.64238281 56.01027344 61.6484375 54.97265625 C73.01369944 43.9976179 88.28898044 40.18351519 103.65625 40.02734375 C118.85211734 41.02318943 131.51886071 47.82286085 141.65625 59.02734375 C146.71987697 64.92705797 150.44925528 70.94830933 153.65625 78.02734375 C154.05714844 77.640625 154.45804687 77.25390625 154.87109375 76.85546875 C163.13118452 69.28840146 170.71929791 67.16665466 181.8359375 67.640625 C188.38605595 68.3036738 192.93485119 70.32336899 197.71875 74.77734375 C200.99027291 77.28319108 202.55695568 77.33870632 206.5859375 77.0859375 C213.86016175 76.88006323 221.56603877 80.1645987 226.83203125 85.04296875 C234.03140896 92.78197075 236.21165482 98.93079755 236.09375 109.33984375 C236.08545166 110.27538086 236.07715332 111.21091797 236.06860352 112.17480469 C235.70889517 126.82427923 228.3908797 135.80477512 218.2109375 145.80859375 C213.70345795 149.72334663 208.72431954 152.8801669 203.65625 156.02734375 C204.37941406 157.36925781 204.37941406 157.36925781 205.1171875 158.73828125 C213.17818091 174.0178847 214.81456137 188.15722245 209.984375 205.02734375 C206.79681021 215.14908795 201.55028918 223.98429804 194.65625 232.02734375 C194.21023438 232.61644531 193.76421875 233.20554687 193.3046875 233.8125 C183.82921342 245.97546234 168.99359129 253.77155165 154.203125 257.2265625 C153.47270996 257.40296265 152.74229492 257.57936279 151.98974609 257.7611084 C150.21335614 258.18921547 148.43500046 258.60915272 146.65625 259.02734375 C146.56126221 260.0131543 146.46627441 260.99896484 146.3684082 262.01464844 C143.17327449 294.72728098 139.79249657 327.947242 114.65625 352.02734375 C105.90634586 359.09285408 96.93505171 362.23724701 85.65625 362.02734375 C76.42905185 360.82430399 67.47156466 357.44507651 61.28125 350.27734375 C60.476875 349.16359375 60.476875 349.16359375 59.65625 348.02734375 C56.73852267 345.83904825 53.54605345 345.42284365 49.91796875 345.5234375 C44.26257404 346.78344772 39.75049898 351.36590623 35.3125 354.88671875 C19.09201512 367.30873565 -0.08800319 376.01871814 -20.34375 379.02734375 C-21.07980469 379.13820313 -21.81585938 379.2490625 -22.57421875 379.36328125 C-54.83393082 383.36197253 -88.20881844 375.74190061 -113.99609375 355.74609375 C-123.63793985 348.08605897 -123.63793985 348.08605897 -126.34375 344.02734375 C-127.23835937 344.09953125 -128.13296875 344.17171875 -129.0546875 344.24609375 C-132.81632058 344.53483318 -136.57855061 344.78979174 -140.34375 345.02734375 C-141.18808594 345.0840625 -142.03242188 345.14078125 -142.90234375 345.19921875 C-173.23027521 346.25044688 -200.64820176 329.63067154 -222.28125 309.96484375 C-227.85490998 304.74243301 -232.80146296 299.17903825 -237.34375 293.02734375 C-237.9325293 292.23432861 -237.9325293 292.23432861 -238.53320312 291.42529297 C-257.72532636 265.21481404 -267.23396003 234.58605274 -263.94921875 202.12890625 C-261.45891919 188.08683003 -254.29652531 173.66886846 -242.7109375 165.07421875 C-228.32001383 155.53371782 -213.21768009 151.5732386 -196.00878906 154.41259766 C-190.34713514 155.59846826 -184.83007797 157.19856776 -179.34375 159.02734375 C-179.54871094 158.0115625 -179.75367188 156.99578125 -179.96484375 155.94921875 C-185.86366415 126.0944106 -185.50281676 92.00869072 -168.20703125 65.6328125 C-159.19057742 53.1230729 -148.49731819 44.75821141 -133.34375 41.02734375 C-118.84596169 38.96729477 -105.72588505 40.82433056 -92.34375 47.02734375 C-92.17875 45.87234375 -92.01375 44.71734375 -91.84375 43.52734375 C-89.30547044 32.1320887 -82.41582549 21.13685051 -75.34375 12.02734375 C-74.70824219 11.19460937 -74.07273438 10.361875 -73.41796875 9.50390625 C-55.43893628 -11.96258449 -22.62622823 -15.37673269 0 0 Z " fill="#352777" transform="translate(264.34375,64.97265625)"/>
<path d="M0 0 C7.00468483 5.8643873 12.29678273 14.04592205 13.50537109 23.22729492 C14.80758804 45.20273266 9.30792448 66.66605977 -5.4375 83.5 C-6.87311078 84.96019316 -8.32901287 86.40097306 -9.8125 87.8125 C-10.3384375 88.34617187 -10.864375 88.87984375 -11.40625 89.4296875 C-20.37215442 97.8924034 -32.52574343 103.4106635 -43.66796875 108.40234375 C-46.68594982 109.7058086 -46.68594982 109.7058086 -48.98828125 111.00390625 C-50.8125 111.8125 -50.8125 111.8125 -54.8125 111.8125 C-54.80669922 112.70461182 -54.80089844 113.59672363 -54.79492188 114.51586914 C-54.7601401 124.10508024 -54.97427761 133.66741053 -55.3125 143.25 C-55.36090835 144.67512237 -55.40908634 146.10025259 -55.45703125 147.52539062 C-55.57288214 150.95452105 -55.69179125 154.38353671 -55.8125 157.8125 C-54.66249512 157.69132813 -53.51249023 157.57015625 -52.32763672 157.4453125 C-48.04524536 156.99492199 -43.76243647 156.54861482 -39.47949219 156.10351562 C-37.62879047 155.91061282 -35.77820252 155.71661513 -33.92773438 155.52148438 C-31.26201341 155.24058045 -28.59590292 154.96366645 -25.9296875 154.6875 C-25.10757782 154.60000488 -24.28546814 154.51250977 -23.43844604 154.42236328 C-19.20763301 153.98818174 -15.07302682 153.71662317 -10.8125 153.8125 C-10.626875 152.93464844 -10.626875 152.93464844 -10.4375 152.0390625 C-5.53017859 131.61233712 5.93163732 106.4667993 23.1875 93.8125 C31.2887101 88.95767646 38.75335401 87.87670236 48.1875 88.8125 C56.9745078 91.44245758 64.30648893 97.78575244 68.6875 105.8125 C72.35290112 115.28690737 71.03362305 126.81596322 67.44140625 136.078125 C60.28476405 151.68450985 48.7458675 163.41056595 32.6875 169.74609375 C24.55363052 172.22438211 15.68906009 173.8125 7.1875 173.8125 C5.16308068 185.37753376 3.50220572 196.94587407 2.48901367 208.64257812 C0.46905258 231.73492191 -4.64583443 254.10361218 -21.8125 270.8125 C-25.83108595 273.4915573 -29.08891721 273.50860694 -33.8125 272.8125 C-36.68279869 271.01856332 -38.30381638 269.82986724 -39.8125 266.8125 C-40.4468191 263.35317214 -40.50349673 260.26748364 -39.8125 256.8125 C-38.08962976 254.42496916 -36.11865049 252.49248604 -34.046875 250.40234375 C-31.45450815 247.3975549 -29.68901667 244.24704375 -28 240.6875 C-27.45730469 239.55054688 -26.91460937 238.41359375 -26.35546875 237.2421875 C-21.66066955 225.11395623 -20.95892591 211.44965241 -19.6875 198.625 C-19.43506944 196.12748193 -19.18055112 193.6302076 -18.92288208 191.13322449 C-18.7647775 189.59655072 -18.60987597 188.05954284 -18.45870972 186.52217102 C-18.12234528 183.21206654 -17.7608153 180.00903926 -16.8125 176.8125 C-17.57908936 176.94382324 -18.34567871 177.07514648 -19.13549805 177.21044922 C-27.61953409 178.59801628 -36.04950923 179.38773128 -44.625 179.9375 C-45.90181641 180.02386719 -47.17863281 180.11023438 -48.49414062 180.19921875 C-51.59996564 180.40860021 -54.70603041 180.61295192 -57.8125 180.8125 C-57.86583496 181.72813721 -57.91916992 182.64377441 -57.97412109 183.5871582 C-59.64519869 209.79206678 -69.0896497 237.29190316 -85.8125 257.8125 C-86.48796875 258.65167969 -87.1634375 259.49085938 -87.859375 260.35546875 C-102.95767498 278.12627803 -125.10208954 290.2336417 -148.35449219 292.62060547 C-160.47611668 293.56693015 -172.91771843 293.407195 -184.8125 290.8125 C-185.78509766 290.60318848 -185.78509766 290.60318848 -186.77734375 290.38964844 C-204.41614831 286.52192174 -204.41614831 286.52192174 -210.8125 281.125 C-212.43784191 277.36639684 -212.57592151 273.82393301 -211.8125 269.8125 C-210.09345248 266.74368184 -208.00535833 264.40892916 -204.8125 262.8125 C-199.496998 262.45944083 -195.59402314 263.34475401 -190.625 265.1875 C-170.42992354 272.2607387 -148.95634614 272.11153324 -129.46142578 263.02514648 C-122.64663666 259.67676133 -116.47928804 255.91023819 -110.8125 250.8125 C-109.95011719 250.10480469 -109.95011719 250.10480469 -109.0703125 249.3828125 C-98.65900954 240.12299005 -92.10028134 225.78191358 -87.8125 212.8125 C-87.58723633 212.13525879 -87.36197266 211.45801758 -87.12988281 210.76025391 C-81.02833717 191.9029092 -79.64597792 172.97329731 -79.26739502 153.27853394 C-76.92294068 32.69398705 -76.92294068 32.69398705 -50.07421875 4.93359375 C-35.71082526 -8.53673901 -16.69130381 -12.02221212 0 0 Z " fill="#D4ABF9" transform="translate(386.8125,132.1875)"/>
<path d="M0 0 C23.30250769 18.12417265 30.05585418 51.25188898 33.67871094 78.94189453 C36.54678371 104.41280806 35.95000043 130.23596796 31.31640625 155.4453125 C30.88303701 157.80364744 30.49263707 160.16203331 30.125 162.53125 C26.37634391 184.46088811 17.47226186 207.40557268 -0.25 221.625 C-7.85074847 226.89624599 -14.96306369 228.21509265 -24.1875 227.1875 C-35.22138664 224.73915237 -43.41870798 216.36647936 -49.46484375 207.17578125 C-55.47817875 196.74448584 -60.17178215 185.85464374 -63.1875 174.1875 C-63.52394531 172.93066406 -63.86039063 171.67382812 -64.20703125 170.37890625 C-69.1015644 151.40707938 -70.67454204 132.44071769 -70.52368164 112.8918457 C-70.49998992 109.62360979 -70.50316695 106.3561916 -70.50976562 103.08789062 C-70.48750756 85.61104212 -69.71604279 68.13098801 -66 51 C-65.78714355 50.00589111 -65.57428711 49.01178223 -65.35498047 47.98754883 C-62.26302477 34.29570092 -57.52868814 21.58034234 -49.1875 10.1875 C-48.445 9.115 -47.7025 8.0425 -46.9375 6.9375 C-33.22872993 -6.77127007 -16.64205338 -9.46312839 0 0 Z " fill="#A0CAEA" transform="translate(252.1875,80.8125)"/>
<path d="M0 0 C7.3465482 2.43452864 11.74571803 9.45113409 15.27734375 15.92578125 C25.23455388 36.56281048 29.04416322 60.18513563 29.2421875 82.921875 C29.25198135 83.86019669 29.26177521 84.79851837 29.27186584 85.76527405 C29.49487995 112.63340895 28.33458023 137.1945227 19.00390625 162.6640625 C18.60300781 163.80230469 18.20210937 164.94054687 17.7890625 166.11328125 C14.72793044 174.16292482 10.31842338 182.78771775 3.00390625 187.6640625 C-0.82356988 188.23818392 -3.37931951 188.56734724 -6.79296875 186.66015625 C-14.56820301 179.83007661 -19.54548759 167.60024418 -22.35888672 157.81201172 C-22.98385216 155.70532743 -23.70216307 153.65241378 -24.4375 151.58203125 C-26.15936472 146.43538759 -27.18141012 141.25146553 -28.12109375 135.9140625 C-28.28996094 135.01429688 -28.45882812 134.11453125 -28.6328125 133.1875 C-30.98579073 120.10716435 -31.23627591 106.97715473 -31.24609375 93.7265625 C-31.24676849 92.90135101 -31.24744324 92.07613953 -31.24813843 91.22592163 C-31.17930805 37.73442379 -31.17930805 37.73442379 -18.99609375 15.6640625 C-18.46242187 14.64505859 -18.46242187 14.64505859 -17.91796875 13.60546875 C-14.17656882 7.00813353 -8.42115424 -0.88990671 0 0 Z " fill="#352777" transform="translate(234.99609375,97.3359375)"/>
<path d="M0 0 C9.98635864 5.65064421 19.51493851 12.89437115 25.5 22.875 C26.41945272 27.47226362 25.92533826 29.09765767 23.6875 33.1875 C21.49705293 35.87862069 19.91320703 37.62358676 16.4140625 38.24609375 C10.20167564 38.42631658 10.20167564 38.42631658 6.875 35.8125 C5.699375 34.3584375 5.699375 34.3584375 4.5 32.875 C-2.68556954 24.84955869 -12.26749997 17.82898069 -23.23046875 16.55859375 C-27.74539342 16.36971026 -30.83696324 16.57900144 -35 18.4375 C-38.99857945 22.33611496 -40.34324153 26.23662114 -40.86328125 31.671875 C-40.532385 57.43087513 -30.57384536 79.33975543 -12.68359375 97.859375 C0.40496911 110.46713351 17.49773413 121.46258102 36.125 122.1875 C40.6000496 122.06232379 43.61660185 121.12737093 47.5 118.875 C49.41744593 116.43190423 49.41744593 116.43190423 50.5 113.875 C50.83 113.215 51.16 112.555 51.5 111.875 C52.71009603 98.88973872 48.65180607 88.10353923 42.5 76.875 C37.96551499 78.36951191 34.55874042 80.93137181 30.875 83.875 C21.13857553 91.55010938 21.13857553 91.55010938 14.5 90.875 C11.41806022 89.2468054 9.23579333 87.84490938 7.125 85.0625 C6.14714122 81.63999428 5.96464015 79.44406567 6.5 75.875 C13.0947754 64.17299253 30.22490882 54.37534948 42.5 49.875 C46.42271643 49.13827896 48.92844552 49.99277928 52.44140625 51.96484375 C64.40808993 60.79349296 71.37429907 79.76663112 73.86401367 93.94848633 C75.59503175 106.89625357 75.46770788 120.19984412 67.75 131.3125 C61.67565822 138.56498867 53.87905824 143.39204211 44.5 144.875 C20.34446164 146.35144072 -0.73998478 138.04886966 -19.28515625 122.546875 C-23.49925349 118.79825242 -27.5651294 114.91621845 -31.5 110.875 C-32.2425 110.21757812 -32.2425 110.21757812 -33 109.546875 C-43.73671287 99.7048882 -50.48669461 85.9215613 -56.5 72.875 C-57.13228516 71.53695312 -57.13228516 71.53695312 -57.77734375 70.171875 C-62.64951424 59.0670034 -63.78614644 47.60961762 -63.9375 35.625 C-63.95973633 34.63161621 -63.98197266 33.63823242 -64.00488281 32.61474609 C-63.97136858 21.39306522 -60.17776995 11.15853896 -52.5 2.875 C-36.50678391 -9.51572695 -17.68463805 -8.92515106 0 0 Z " fill="#95D0E8" transform="translate(83.5,245.125)"/>
<path d="M0 0 C2.69780344 1.89501578 3.39724783 2.97257923 5 6 C5.54508037 9.88369763 5.36419817 12.15659371 3.8125 15.75 C1.68600325 18.38978907 0.11896575 19.65317388 -3 21 C-7.70333193 21.41994035 -10.70761768 20.76097736 -15 19 C-18.76763565 18.51902524 -20.63176435 18.81963968 -24.0625 20.5 C-33.55642739 28.57993821 -35.51766435 40.88053946 -36.7109375 52.7265625 C-38.86578397 79.63135981 -29.30372249 105.60505809 -12 126 C-11.48566406 126.63679687 -10.97132813 127.27359375 -10.44140625 127.9296875 C-7.23677653 131.83777253 -3.72726386 135.10508174 0.16796875 138.32421875 C3.36605337 141.24954562 4.89744914 143.05995042 5.375 147.4375 C4.97244324 151.26178923 4.39539302 153.02640867 2 156 C-0.81435481 158.26711915 -2.74111711 158.95603875 -6.3125 159.5625 C-18.30769532 157.73272444 -29.84571248 142.02928396 -36.75 132.75 C-55.41013393 106.78807453 -63.57013433 74.44765003 -59.5390625 42.625 C-56.87315982 27.82139924 -51.12534729 12.28858792 -39.125 2.5625 C-26.68549936 -5.78697028 -13.65005315 -6.1406228 0 0 Z " fill="#85DAE3" transform="translate(161,129)"/>
<path d="M0 0 C6.19925767 3.21487922 8.73314083 8.66405822 11 15 C11.94875 14.195625 12.8975 13.39125 13.875 12.5625 C17.82278946 9.21546111 20.5197137 8.60738525 25.671875 8.640625 C29.59004236 9.24544278 31.30358816 11.16876757 34 14 C36.13117971 18.26235942 35.57642418 23.38289943 35 28 C30.66214824 38.71603696 19.28533237 48.26678176 9 53 C4.78119776 54.56525624 1.56103736 55.56764995 -2.75 54 C-12.13296672 45.65958514 -16.2931297 34.80722189 -17.2890625 22.3984375 C-17.47857599 14.35272841 -17.27070483 7.84788803 -11.875 1.5 C-7.80382012 -0.62409385 -4.49062064 -0.99363647 0 0 Z " fill="#F182D5" transform="translate(446,153)"/>
<path d="M0 0 C4.04118324 3.33836876 6.50997719 5.75279534 7.2578125 11.125 C7.82049793 26.43004376 2.41011992 43.32005842 -8.14453125 54.6953125 C-14.58683811 60.15920195 -27.47972516 70.375 -36.125 70.375 C-35.59740299 59.22269071 -34.13741638 48.34772842 -32.125 37.375 C-31.91834717 36.24578125 -31.91834717 36.24578125 -31.70751953 35.09375 C-29.42869921 23.12269849 -26.15309626 8.90764896 -15.74609375 1.3515625 C-10.33537135 -1.90790883 -5.80731325 -3.01980289 0 0 Z " fill="#362878" transform="translate(371.125,148.625)"/>
<path d="M0 0 C2.82877079 2.28126677 2.98489305 3.90600118 3.5625 7.5 C3.22099471 15.45855805 -1.56946602 22.89129393 -6.9375 28.5 C-14.34923642 35.22907649 -21.29703499 37.07399792 -31 39 C-28.86348908 26.35874369 -20.23977434 8.45042592 -10 0.3125 C-6.13344922 -1.37911597 -4.01712549 -1.21271713 0 0 Z " fill="#382979" transform="translate(432,244)"/>
</svg>
